<?xml version="1.0" standalone="no"?>
<!DOCTYPE svg PUBLIC "-//W3C//DTD SVG 20010904//EN"
 "http://www.w3.org/TR/2001/REC-SVG-20010904/DTD/svg10.dtd">
<svg version="1.0" xmlns="http://www.w3.org/2000/svg"
 width="400.000000pt" height="400.000000pt" viewBox="0 0 400.000000 400.000000"
 preserveAspectRatio="xMidYMid meet">
<metadata>
Created by potrace 1.12, written by Peter Selinger 2001-2015
</metadata>
<g transform="translate(0.000000,400.000000) scale(0.100000,-0.100000)"
fill="#000000" stroke="none">
<path d="M0 2000 l0 -2000 2000 0 2000 0 0 2000 0 2000 -2000 0 -2000 0 0
-2000z m2005 1583 c63 -42 93 -82 105 -135 20 -95 16 -97 -52 -27 -51 53 -83
75 -169 117 -59 29 -111 52 -117 52 -6 0 -14 5 -17 10 -4 6 32 10 102 10 101
0 111 -2 148 -27z m326 -2 c91 -31 310 -142 401 -202 76 -52 103 -87 180 -237
58 -111 114 -259 103 -270 -2 -2 -12 1 -23 7 -28 15 -109 13 -152 -4 -33 -12
-30 -13 42 -8 l77 6 21 -34 c17 -28 20 -44 15 -89 -6 -60 6 -60 24 0 9 28 10
13 6 -75 -3 -63 -12 -131 -22 -160 -10 -30 -19 -107 -24 -195 -5 -80 -11 -164
-15 -188 -4 -27 0 -77 11 -132 24 -124 20 -134 -68 -174 -85 -39 -229 -160
-246 -206 -12 -35 -6 -38 18 -8 17 21 18 19 24 -63 6 -93 3 -106 -20 -84 -22
23 -35 15 -60 -36 -19 -37 -22 -40 -23 -19 0 14 -5 32 -11 40 -9 13 -10 12 -5
-2 4 -13 0 -18 -15 -18 -12 0 -27 -12 -37 -30 -9 -16 -20 -30 -23 -30 -3 0 -9
23 -12 50 -8 63 -28 105 -22 45 3 -22 6 -67 8 -100 l4 -60 -14 48 c-8 27 -21
51 -29 54 -21 8 -52 -24 -66 -69 -19 -65 -31 -28 -17 58 8 56 8 92 1 124 -10
44 -10 43 -11 -36 -1 -51 -7 -96 -17 -120 -16 -37 -17 -38 -27 -17 -17 38 -45
39 -82 3 l-33 -32 5 69 c2 37 5 78 7 91 2 13 0 20 -5 15 -4 -4 -15 -51 -24
-103 -9 -52 -18 -96 -19 -98 -2 -1 -6 15 -10 37 -4 28 -14 46 -32 57 -24 16
-27 16 -62 -2 -20 -10 -40 -20 -44 -22 -4 -2 -3 12 3 30 15 55 9 67 -8 13
l-16 -50 -13 32 c-16 39 -40 53 -89 53 -26 0 -43 -7 -60 -26 -23 -25 -24 -25
-34 -5 -14 26 -13 81 3 156 l14 60 20 -45 21 -45 0 32 c2 63 -41 133 -135 223
-99 95 -176 146 -297 196 -70 29 -93 34 -164 34 -80 0 -84 1 -93 26 -30 78 11
186 120 311 5 7 10 16 10 21 0 5 7 15 15 22 8 7 15 22 15 33 0 17 -17 5 -80
-58 -92 -92 -139 -170 -141 -239 -1 -25 -5 -46 -9 -46 -4 0 -26 20 -48 44 -53
57 -61 100 -66 351 -6 295 5 382 71 575 51 149 137 274 242 351 78 58 199 119
235 119 15 0 30 8 36 20 9 18 21 20 95 20 89 0 95 -2 264 -74 91 -38 121 -60
121 -86 0 -9 21 -41 46 -71 25 -30 63 -83 84 -119 32 -55 43 -66 74 -72 19 -4
64 -21 99 -37 60 -27 67 -33 108 -105 23 -42 49 -76 56 -76 27 0 72 -30 89
-60 10 -16 34 -37 54 -46 47 -22 68 -41 101 -94 37 -58 37 -30 0 30 -19 31
-41 52 -74 67 -25 12 -51 33 -58 45 -21 41 -51 68 -84 74 -25 4 -35 15 -55 57
-39 81 -83 118 -174 146 -54 17 -81 31 -87 45 -5 12 -25 49 -44 83 -30 54 -35
74 -39 149 -5 86 -6 88 -45 128 -23 23 -41 45 -41 49 0 4 44 7 98 7 82 0 112
-5 183 -29z m-996 -1643 c8 -38 34 -92 41 -85 2 2 -3 20 -11 40 -18 42 -19 57
-5 57 6 0 10 -9 10 -20 0 -12 12 -33 26 -47 48 -48 64 -84 64 -148 0 -108 13
-254 21 -249 5 3 9 -32 10 -78 2 -156 19 -28 26 187 3 110 9 207 14 215 7 12
8 10 9 -7 0 -13 4 -23 9 -23 11 0 9 53 -3 62 -6 4 -8 9 -5 13 3 3 27 -11 52
-30 44 -34 47 -39 47 -82 0 -56 -22 -144 -52 -203 -20 -41 -23 -70 -34 -345
l-13 -300 24 -35 c14 -19 62 -72 108 -118 65 -65 91 -84 120 -89 l36 -5 -6 85
-6 86 27 7 c22 5 33 1 57 -22 16 -15 29 -23 29 -16 0 6 -4 14 -10 17 -5 3 -10
11 -10 18 0 6 14 -6 31 -26 26 -32 37 -38 64 -36 18 2 44 -4 59 -14 21 -14 31
-15 47 -7 16 9 23 8 32 -3 14 -18 42 -23 77 -14 14 4 43 9 65 12 22 3 44 10
49 15 6 6 24 10 42 10 17 0 37 7 44 15 7 8 18 15 26 15 10 0 11 -7 3 -29 -17
-48 -45 -66 -104 -67 -47 0 -60 -6 -109 -44 -57 -43 -81 -48 -138 -25 -33 13
-18 -13 16 -29 33 -15 35 -15 101 19 36 19 79 35 93 35 22 0 12 -10 -60 -57
-88 -58 -107 -76 -67 -66 18 5 20 3 13 -10 -20 -36 -95 -105 -119 -109 -30 -6
-33 7 -5 22 20 11 27 30 11 30 -5 0 -30 -16 -55 -35 -79 -60 -135 -47 -216 52
-70 85 -306 311 -364 348 -55 35 -116 97 -116 118 0 7 6 38 14 70 15 63 21
206 20 437 0 172 -16 255 -75 388 -47 107 -46 132 6 132 30 0 34 -4 40 -32z
m1356 -580 c16 -85 5 -141 -28 -146 -13 -2 -23 -8 -23 -13 0 -6 -5 -7 -11 -3
-17 10 -4 162 16 184 8 9 15 30 15 46 1 44 15 12 31 -68z m-762 53 c19 -12 25
-103 14 -196 l-8 -70 -39 -13 c-21 -7 -40 -11 -41 -10 -2 2 1 66 6 142 8 135
14 156 44 156 6 0 16 -4 24 -9z m654 -152 c2 -74 -10 -99 -50 -99 -24 0 -24 0
-17 73 8 81 22 133 23 83 1 -40 11 -27 16 20 5 53 5 53 16 19 5 -16 10 -60 12
-96z m-470 70 c14 -31 17 -62 15 -132 l-3 -91 -31 -3 c-46 -5 -82 12 -90 43
-11 45 13 175 38 201 31 34 51 29 71 -18z m335 -16 c6 -27 13 -70 15 -97 4
-44 2 -52 -29 -85 l-33 -36 -2 55 c-2 39 -3 45 -6 20 -6 -57 -11 -66 -28 -49
-13 12 -13 21 0 69 8 30 15 66 16 80 0 23 1 23 9 5 7 -17 9 -15 9 13 1 43 2
44 12 65 14 26 26 13 37 -40z m-160 12 c13 -27 16 -164 6 -202 -4 -13 -13 -23
-21 -23 -13 0 -13 3 -2 18 7 9 -1 4 -18 -12 -59 -53 -87 -6 -59 98 18 62 60
146 75 146 4 0 13 -11 19 -25z m-450 -85 c-3 -112 -18 -138 -18 -31 0 66 8
131 17 131 2 0 2 -45 1 -100z m156 -290 c19 -7 26 -17 26 -36 0 -20 -4 -25
-16 -20 -9 3 -19 6 -23 6 -7 0 -31 43 -31 55 0 8 17 6 44 -5z m123 -24 c4 -8
13 -16 18 -18 6 -2 9 -7 8 -13 -26 -119 -43 -150 -68 -124 -22 22 -33 148 -14
160 21 13 47 11 56 -5z m383 4 c0 -35 -80 -145 -88 -122 -2 8 -11 3 -23 -10
-24 -30 -24 -22 1 27 40 79 110 145 110 105z m-556 -25 c5 -18 17 -27 46 -35
35 -10 40 -14 40 -41 0 -33 -23 -48 -49 -32 -28 17 -73 133 -52 133 5 0 12
-11 15 -25z m294 6 c36 -3 -7 -164 -45 -169 -19 -3 -22 3 -28 50 -6 50 -3 98
9 116 3 5 15 8 28 6 13 -1 29 -3 36 -3z m142 -21 c0 -36 -26 -85 -60 -113 -37
-32 -48 -30 -29 5 7 12 14 38 14 56 1 18 8 38 15 45 10 10 11 7 5 -13 -4 -14
-10 -32 -12 -40 -3 -10 1 -8 11 4 9 11 16 32 16 48 0 21 5 28 20 28 13 0 20
-7 20 -20z"/>
<path d="M1630 2980 c-81 -23 -114 -57 -130 -135 -11 -54 -7 -88 6 -49 36 109
90 164 178 184 43 9 95 -1 181 -36 17 -7 18 -6 7 8 -18 22 -97 48 -141 47 -20
0 -65 -9 -101 -19z"/>
<path d="M2825 2919 c-11 -16 -2 -17 25 -2 24 12 24 13 3 13 -12 0 -25 -5 -28
-11z"/>
<path d="M1430 2881 c-5 -11 -10 -28 -10 -38 0 -14 5 -12 25 12 13 17 24 33
25 38 0 15 -30 6 -40 -12z"/>
<path d="M2141 2776 c-1 -10 6 -55 15 -100 22 -107 12 -136 -44 -136 -45 0
-146 33 -254 83 -42 19 -117 45 -167 56 -50 12 -111 30 -136 41 -44 19 -59 14
-30 -10 8 -7 31 -18 52 -25 l36 -13 2 -138 c2 -181 13 -220 83 -296 30 -32 68
-66 85 -74 44 -23 24 -29 -34 -10 -53 18 -83 14 -36 -3 66 -25 157 -44 214
-43 71 0 73 -10 9 -39 -47 -21 -22 -26 28 -5 67 28 133 192 143 357 l6 96 31
9 c50 15 63 50 47 126 -14 69 -49 155 -50 124z m-273 -269 c18 -14 14 -55 -8
-77 -23 -23 -40 -25 -62 -7 -30 23 -31 55 -4 82 25 25 44 25 74 2z m212 -56
c0 -71 -24 -191 -45 -229 l-16 -27 6 30 c3 17 8 41 11 55 11 51 18 117 18 173
1 39 5 57 14 57 8 0 12 -19 12 -59z"/>
<path d="M2549 2724 c-10 -12 -14 -44 -14 -101 0 -83 4 -94 40 -106 5 -2 1
-64 -13 -158 -12 -85 -19 -163 -17 -174 2 -11 7 -37 10 -57 3 -21 11 -38 17
-38 6 0 29 -20 52 -45 24 -25 49 -45 56 -45 8 0 -2 17 -23 38 -20 21 -37 42
-37 47 0 6 19 9 43 7 133 -10 235 145 239 364 1 54 -1 109 -5 121 -7 18 -2 24
32 39 22 10 42 23 45 31 7 17 -4 16 -44 -3 -27 -14 -168 -57 -310 -94 -45 -12
-70 -4 -71 23 -3 38 2 91 11 126 11 41 8 48 -11 25z m325 -160 c9 -23 7 -167
-2 -181 -5 -8 -14 25 -21 79 -7 51 -15 98 -18 105 -3 8 3 13 15 13 11 0 23 -7
26 -16z m-139 -214 c11 -18 -6 -50 -31 -56 -36 -9 -55 11 -43 44 6 15 15 30
22 34 12 7 42 -5 52 -22z"/>
<path d="M2220 2639 c0 -31 4 -48 10 -44 6 3 10 26 10 51 0 24 -4 44 -10 44
-5 0 -10 -23 -10 -51z"/>
<path d="M2484 2624 c-4 -14 -2 -30 5 -37 8 -8 11 -1 11 26 0 43 -7 48 -16 11z"/>
<path d="M2392 2405 c-1 -16 -6 -46 -12 -65 -5 -19 -14 -75 -20 -125 -9 -68
-19 -104 -45 -155 -97 -184 -134 -273 -124 -292 18 -33 43 -58 59 -58 18 0 92
79 85 90 -3 5 -1 11 5 15 6 3 10 -4 10 -17 0 -30 63 -93 84 -85 16 6 36 66 36
110 0 15 -11 83 -25 150 -13 67 -27 148 -31 180 -6 47 -10 57 -25 57 -23 0
-23 -6 -3 86 8 42 13 90 11 107 l-4 32 -1 -30z m-46 -505 c0 -33 -3 -53 -6
-44 -4 10 -13 -3 -28 -38 -22 -53 -54 -84 -73 -73 -5 4 1 19 15 35 13 16 32
53 42 82 13 41 41 95 50 98 0 0 0 -27 0 -60z m93 -38 c1 -38 -3 -82 -9 -98
l-12 -29 -25 30 c-22 25 -24 31 -10 33 16 3 37 58 37 98 0 17 7 34 15 34 1 0
3 -31 4 -68z"/>
<path d="M2121 1826 c-12 -18 -21 -43 -21 -54 0 -29 20 -70 37 -76 25 -10 34
4 18 27 -19 27 -19 64 -1 99 13 25 12 38 -5 38 -4 0 -17 -15 -28 -34z"/>
<path d="M2497 1768 c-3 -29 -9 -64 -13 -78 -7 -22 -5 -23 8 -12 16 13 38 84
38 121 0 12 -6 21 -14 21 -9 0 -15 -17 -19 -52z"/>
<path d="M2325 1729 c-11 -17 -2 -18 25 -4 24 14 24 14 3 15 -12 0 -25 -5 -28
-11z"/>
<path d="M1920 719 c0 -14 83 -59 109 -59 25 0 -8 28 -47 41 -20 6 -43 16 -49
22 -9 6 -13 5 -13 -4z"/>
<path d="M1785 602 c13 -14 128 -55 120 -43 -3 5 -24 16 -48 24 -23 8 -51 18
-62 22 -15 6 -17 5 -10 -3z"/>
<path d="M2640 1280 c0 -35 3 -60 6 -57 8 7 7 108 -1 115 -3 3 -5 -23 -5 -58z"/>
</g>
</svg>
